PathFileType	4	(X/Y/Z)	C:/Users/beibeiliu/ov580/test_trc/User2\sequence.31_training_dense_right.trc
DataRate	CameraRate	NumFrames	NumMarkers	Units	OrigDataRate	OrigDataStartFrame	OrigNumFrames
120	120	16	19	mm	120	1	349
Frame#	Time	ThumbCMC			ThumbMCP			ThumbIP			ThumbTip			IndexMCP			IndexPIP			IndexTip			MiddleMCP			MiddlePIP			MiddleTip			RingMCP			RingPIP			RingTip			PinkyMCP			PinkyPIP			PinkyTip			BackHand1			BackHand2			BackHand3	
		X0	Y0	Z0	X1	Y1	Z1	X2	Y2	Z2	X3	Y3	Z3	X4	Y4	Z4	X5	Y5	Z5	X6	Y6	Z6	X7	Y7	Z7	X8	Y8	Z8	X9	Y9	Z9	X10	Y10	Z10	X11	Y11	Z11	X12	Y12	Z12	X13	Y13	Z13	X14	Y14	Z14	X15	Y15	Z15	X16	Y16	Z16	X17	Y17	Z17	X18	Y18	Z18	
0	0	41.5745	-44.5642	63.6073	16.4722	-70.3097	53.8984	-1.95522	-93.5053	34.9223	-11.5233	-111.064	20.3127	31.7421	-28.9938	-18.7535	20.2121	-34.768	-48.7015	10.0145	-41.9634	-70.5248	60.2314	-30.0423	-35.2898	51.6414	-40.1709	-66.0854	50.464	-57.4286	-95.6126	78.5311	-61.782	-31.9748	73.1245	-94.2248	-32.2977	70.6062	-110.769	0.660709	98.1185	-71.0505	-18.4454	87.4818	-100.915	-6.28982	79.6857	-100.145	23.7088	93.4699	-21.7153	16.6195	101.604	-11.733	50.7962	63.7803	-14.4928	43.926	
1	0.00833333	36.093	-46.4925	55.602	18.4896	-69.8989	48.5501	-2.54869	-93.4884	27.1054	-14.3337	-112.027	16.5244	29.8036	-30.0266	-22.7715	16.2363	-34.2765	-52.11	11.0852	-46.5322	-78.6832	54.7599	-30.5517	-37.4478	47.9487	-43.413	-73.5047	46.7863	-62.7916	-100.011	73.1189	-63.4606	-36.8532	74.9307	-93.464	-37.633	66.0098	-110.121	-3.56212	95.1949	-70.9931	-21.5175	83.916	-101.696	-9.32828	73.3479	-95.0703	20.4313	91.2815	-23.3834	13.1522	99.9397	-14.3214	46.7092	60.4441	-14.6238	37.2433	
2	0.0166667	34.2999	-46.2867	56.8958	15.8695	-71.1094	41.3755	-5.30534	-93.9207	22.5772	-12.5925	-110.659	6.56992	28.1144	-30.3107	-27.3951	14.6633	-34.8349	-52.7796	10.9549	-48.6352	-79.8136	51.6999	-31.117	-46.1418	45.207	-44.3245	-76.8451	43.7933	-68.9523	-102.525	73.6935	-63.1131	-40.3958	67.9966	-92.1792	-41.5455	63.9269	-109.265	-8.59422	91.8863	-72.3325	-27.1948	82.3264	-100.619	-14.3464	71.9013	-96.8248	13.9589	89.8322	-24.1702	8.19826	100.201	-15.0273	39.5608	60.9461	-14.662	34.4199	
3	0.025	29.838	-47.7255	50.2296	11.3107	-71.8948	39.9004	-7.18767	-94.6283	15.3346	-14.9742	-112.789	-1.18383	24.0523	-29.9184	-29.0449	11.5407	-37.288	-61.0513	9.63207	-52.9415	-84.9938	53.21	-31.1559	-48.6689	45.5782	-47.3508	-82.0035	42.6783	-74.1979	-101.741	68.5763	-63.3953	-46.2681	64.4882	-96.1374	-44.7546	58.9305	-108.711	-12.625	89.0796	-72.0926	-30.8136	78.4841	-100.014	-20.0824	68.8572	-94.7528	13.9047	84.6409	-23.1943	4.81627	97.1775	-18.1862	39.0548	54.0384	-16.6556	28.5235	
4	0.0333333	25.4581	-49.2668	44.4351	9.11197	-73.7952	33.4996	-9.72727	-96.4578	11.3296	-14.8185	-114.673	-8.73116	22.1695	-31.5435	-37.9162	9.41451	-38.3066	-63.6799	7.99064	-59.0507	-87.6491	46.4733	-32.5686	-49.2186	40.1989	-51.8938	-85.1915	36.2618	-79.2013	-101.868	66.456	-62.7914	-46.646	58.3038	-97.6491	-48.08	55.0483	-111.719	-15.1868	88.4429	-73.6316	-33.704	72.4327	-104.148	-21.0188	66.1946	-95.1931	9.6535	83.6048	-26.2094	3.1576	97.3243	-19.0507	33.4246	57.7189	-18.769	26.0745	
5	0.0416667	23.0233	-53.7998	37.6743	8.07449	-77.7147	26.2594	-8.79598	-99.7974	8.00364	-15.2324	-117.508	-12.6684	16.6382	-35.8481	-41.2113	10.1277	-45.148	-71.9272	-1.07079	-68.096	-92.4921	45.554	-37.3159	-55.5114	39.6134	-55.1333	-88.6716	32.3048	-85.4573	-103.238	60.9909	-69.1111	-54.0363	58.2905	-100.752	-54.8364	50.3599	-113.112	-23.0479	84.4171	-81.0966	-40.5868	69.3449	-106.034	-28.8091	63.0125	-99.2549	7.09535	83.8296	-31.7542	-5.9099	90.9275	-24.392	26.1435	53.3446	-22.8995	17.0037	
6	0.05	23.0657	-57.5839	32.2195	2.73828	-81.5485	22.0956	-15.6987	-104.801	-0.114775	-19.8456	-122.962	-19.1699	15.2849	-39.8643	-47.5046	2.61347	-50.1889	-76.7292	2.6771	-74.4277	-96.657	39.768	-40.9947	-61.7516	34.2975	-60.6952	-92.9043	29.6097	-94.1955	-106.496	62.1786	-73.6799	-59.9497	56.5354	-105.156	-58.4606	50.9781	-117.831	-26.2325	80.5574	-81.1244	-44.3493	68.7976	-111.346	-29.9648	61.082	-100.471	2.16773	78.5024	-32.9907	-7.88826	86.5125	-27.3388	23.7088	48.5686	-26.4727	13.0298	
7	0.0583333	21.3507	-60.6124	31.8662	1.95634	-85.0476	16.0943	-14.9381	-107.472	-5.5619	-19.8335	-124.996	-27.9538	11.4816	-42.6232	-52.2234	4.09055	-56.5905	-82.907	-0.932224	-82.1389	-101.431	39.4177	-46.3196	-68.4141	32.3195	-67.0392	-97.6854	29.9053	-104.117	-110.54	61.1065	-77.9765	-64.0442	55.9295	-109.363	-61.5341	46.8564	-119.99	-30.2514	79.9827	-82.7882	-48.9353	66.5963	-111.943	-38.1345	59.8336	-105.55	-3.49895	74.7645	-35.1664	-16.4451	85.7649	-29.0789	20.6732	45.2468	-28.1772	11.9703	
8	0.0666667	22.0107	-63.8941	22.0828	2.02085	-88.2844	11.3205	-12.2034	-109.159	-10.371	-18.2765	-127.396	-31.9913	12.6129	-46.1097	-57.8735	2.54684	-57.7769	-85.885	1.10112	-81.8933	-102.709	39.7912	-47.8924	-71.2341	32.465	-71.6009	-102.546	28.5097	-100.508	-112.307	58.7079	-75.2323	-65.9427	53.3497	-107.642	-67.3911	47.6986	-122.606	-31.8528	79.8629	-86.5685	-53.8655	64.0993	-113.344	-40.2615	61.5739	-108.049	-9.64773	78.6339	-37.522	-19.5945	87.1432	-32.513	13.4304	48.0615	-31.7924	8.22968	
9	0.075	20.2392	-65.2042	23.0828	2.07166	-91.6564	5.7527	-12.7102	-111.981	-15.8933	-16.5771	-128.972	-40.4387	15.0095	-47.7079	-62.3319	2.13464	-59.0209	-86.529	0.805826	-88.6504	-105.683	36.3101	-49.6125	-76.9139	32.0742	-73.6387	-105.875	27.0785	-103.653	-115.841	59.7718	-77.601	-69.82	52.0952	-109.18	-71.2376	45.6653	-123.688	-37.7078	81.5442	-90.2924	-57.238	64.5527	-116.412	-43.6995	55.6943	-107.808	-13.796	74.4748	-41.7675	-19.0066	86.4931	-36.1347	9.233	50.0028	-32.3288	4.66738	
10	0.0833333	22.0439	-66.5519	15.5004	0.057004	-93.1187	-0.724167	-13.5787	-115.691	-22.7983	-11.8762	-130.696	-47.7428	14.411	-48.478	-62.0492	2.61748	-63.9408	-93.1144	4.93395	-89.0594	-108.508	39.5852	-52.2348	-79.6245	35.7301	-72.7047	-107.704	29.4897	-107.363	-117.146	60.5689	-82.3458	-75.2007	53.1436	-112.034	-74.0217	46.223	-124.795	-40.4871	81.8691	-92.8231	-59.4148	64.0389	-117.494	-46.4956	55.7803	-106.622	-13.9229	75.8084	-42.9744	-20.6362	86.6763	-36.2053	10.406	49.3745	-36.2183	2.22075	
11	0.0916667	22.2746	-68.5635	16.6199	6.26073	-92.526	-4.04964	-10.1804	-115.891	-31.9815	-9.17512	-131.135	-55.8665	13.3067	-50.0492	-67.4261	6.27124	-64.8995	-96.3765	3.92437	-94.5116	-110.25	38.5889	-52.4794	-79.177	34.3894	-76.0948	-110.769	26.6387	-110.131	-118.194	60.6314	-82.4763	-77.7408	54.6385	-113.176	-75.9663	45.9567	-123.798	-40.3541	76.4276	-93.8855	-63.9694	63.4908	-119.945	-47.1272	58.9489	-108.712	-17.186	77.5023	-44.5918	-28.83	86.4022	-38.8828	6.37102	45.3143	-37.076	-3.61326	
12	0.1	20.53	-69.8105	13.2965	6.00472	-94.0491	-7.82264	-6.34479	-115.485	-31.8814	-5.71602	-129.813	-56.8375	13.6336	-50.1848	-72.1798	8.18163	-66.8356	-98.3935	2.97292	-93.3525	-109.237	38.5899	-54.4327	-86.2421	36.7131	-81.7139	-112.428	30.5608	-114.732	-115.69	60.0233	-84.5872	-79.9764	55.5227	-117.041	-75.3107	44.9853	-124.397	-42.0498	79.8177	-95.5427	-66.8757	63.5285	-119.54	-51.1894	57.9507	-108.247	-21.1105	77.5721	-43.7135	-29.2044	87.0167	-41.5847	3.94156	48.0889	-36.0408	-2.3265	
13	0.108333	25.1002	-70.3761	7.7054	6.14585	-95.428	-10.6207	-3.7154	-114.389	-36.9487	-2.76242	-129.823	-59.0468	19.7723	-52.8074	-72.0466	11.3779	-69.6822	-99.938	6.63042	-103.207	-109.797	46.2419	-55.7149	-84.6168	38.7234	-80.8893	-111.856	32.2106	-121.01	-112.157	63.9372	-87.916	-81.7004	52.1824	-114.617	-76.9858	48.7957	-125.651	-45.0323	83.9675	-95.1221	-66.5471	65.812	-121.521	-49.875	58.9403	-110.086	-24.3973	79.7263	-46.0574	-27.5216	88.5756	-42.6343	1.51717	49.1534	-37.0004	-3.68065	
14	0.116667	24.268	-70.6351	7.25041	4.11144	-95.7529	-9.29193	-4.01715	-114.522	-37.7562	0.763542	-128.197	-66.1855	17.8789	-53.4602	-76.305	12.5996	-74.8743	-100.705	7.60825	-104.53	-106.048	42.7862	-57.4026	-86.0841	40.3136	-83.0145	-111.019	32.0885	-122.239	-107.472	66.0276	-88.1125	-80.7581	54.6439	-119.418	-74.1736	48.075	-123.743	-39.1038	83.0489	-95.7407	-65.994	69.4818	-123.758	-51.573	61.3225	-108.238	-19.9729	84.0656	-47.9287	-30.4023	88.8004	-42.4856	3.25268	50.6488	-39.4208	-8.27891	
15	0.125	23.424	-69.3471	7.19357	6.92741	-94.3753	-10.6605	-4.6513	-114.161	-37.2779	1.593	-127.231	-62.4455	18.833	-53.6325	-75.3288	10.8391	-76.656	-99.1301	7.70131	-107.295	-102.396	44.6662	-59.378	-88.1809	35.5788	-88.1823	-109.69	30.3822	-122.309	-103.401	61.617	-88.0681	-80.4963	58.4776	-118.75	-76.1477	50.2763	-124.74	-38.5993	83.3584	-97.3925	-66.3628	68.5496	-122.839	-50.0223	61.9233	-108.253	-20.1833	87.0785	-47.3975	-29.9351	93.7887	-42.9842	0.175009	53.6282	-39.3239	-4.95047	
